<?xml version="1.0" encoding="utf-8"?>
<!-- Generator: Adobe Illustrator 19.2.1, SVG Export Plug-In . SVG Version: 6.00 Build 0)  -->
<svg version="1.1" id="Calque_1" xmlns="http://www.w3.org/2000/svg" xmlns:xlink="http://www.w3.org/1999/xlink" x="0px" y="0px"
	 viewBox="0 0 256 256" style="enable-background:new 0 0 256 256;" xml:space="preserve">
<g>
	<path d="M96.9,80.8c-1.4,0.6-3.5-0.1-4.5,0.8c0.2,0.2,0.4,0.3,0.7,0.2c-1.7,1.5,1.4,2-0.2,3c0.1-0.3,0.1-0.5,0.2-0.8
		c-1.8,0-2,2.4-3.3,1.3c-1-0.8-0.3-3.1,0.4-3.9C91.3,80.3,96.5,79.1,96.9,80.8z M150.1,58.9c1.7,0.1,3.9,5.6,4.3,6.9
		c0.8,2.3,1.4,6.6,0.3,9c-0.4,0.9-2.4,2.8-3,3.4c-1.7,1.7-4.9,3.9-7.2,1.6c-0.1,0.1-0.2,0.2-0.3,0.3c0.3,0.2,0.5,0.4,0.6,0.7
		c-1.6-0.3-1.6-1.7-3.4-2.6c-0.5,0.8,2.1,2.8,2,3.9c-0.2-1.1-1.1,2.1-1.1,2.2c0.4-0.1,0.8-0.2,1.1-0.4c-0.4,0.6-2,1.6-2.9,1
		c0.1,0.9,0.3,3.3-1.2,3c0,2.5-5.4,4-7.1,4.3c-4.4,1-10.4,0.1-14.9-0.7c-1.3-0.5-5.1-2.3-6.7-2.8c-1.6-0.5-4.4-0.6-6.4-0.8
		c-3.6-0.4-9.1,1.6-12.3-1c1.8,0.3,2.3-1.4,3.9-1.5c-0.2-0.1-0.3-0.1-0.4,0.1c-0.2-0.1-0.7-2.3-0.5-2.5c0.1,0.3,1.1,0.5,1.3,0.7
		c0.2-0.3,1.3-2.2,1.2-2.8c0.9-0.6,1.5,1.5,2,1.5c1.1-0.1,0.5,0.2,2.1-0.6c0.7,0.7,1,1.5,0.9,2.6c1.5-0.7,1.8-1.8,1.7,1.1
		c0.1,0,0.3,0,0.4,0.1c0-0.4,0.1-0.8,0.2-1.2c1.5,1,1.8,2.1,2.5,3.1c1.7-1.1-0.4-0.3,1.5-0.1c0.2-0.9,0.5-1.8,0.9-2.6
		c-1-0.9-0.7,0.8-1.1,1.1c-0.7-0.9,0.3-0.9,0.3-1.5c-0.3-1.1-1.2-0.5,1.2-1.6c-0.1,0.6-0.5,1-1,1.3c2.2,0.4,2.4-0.1,3.8-0.7
		c1-0.4,1.9-2,3.2-0.3c0.1-0.4-0.4-1.2-0.4-1.5c0-0.4-0.2-1.3-0.3-1.9c-0.2-1.4,0.8,0,0.8-1.1c-3.8-1.3,2.2-4.4,4.1-4.3
		c-1-0.5-2.6,0.7-2.4-0.8c-0.6,0.6-1.4,0.9-2.3,0.8c-0.7-0.9,1.6-2.3,1.9-3.2c-1.9,1.3-1.7,2.4-2.7-0.3c-0.6-1.5-0.5-3.3,0.4-4.6
		c0.9-1.4,2.1-0.8,2.8-1.6c0,0.4-0.2,0.7-0.4,1.1c1.5-1,1.7-0.3,2.9-0.1c0.1-0.2,0.1-0.4-0.1-0.6c0.9-0.2,0.6,0.5,0.9,0.8
		c0.3,0.4,0.2-0.6,0.2-0.5c0.2,0.5,0,0.6,0.1,0.7c0.8,0.3,2.1,0.9,3.1,1c0.1,1.2-1.2,0.1-1.4,0.1c-0.3,0.7,0.9,0.5,0.1,1.5
		c-0.7,1-1.2,2.1-2.2,2.9c0.4,1.3,2.2-2.5,2.4-2.6c2-1.6,1.6-1.6,4.1-0.2c2.9,1.5,5.6,3.3,8.3,4.8c0-1.2-2.5-2.4-3.1-3.2
		c0.8,0.7,1.6,1.2,2.6,1.6c-0.1-0.2-1.2-2.2-1.2-2.5c-0.3,0.2-0.7,0.4-1,0.7c0.1-0.2,0.1-0.3,0.2-0.5c-0.3,0.7,0.4-2.4-0.5-0.9
		c0.1,0.2,0.1,0.4,0.2,0.6c-0.4-0.5-0.4,0.4-0.2,0.7c-0.7,0-0.3-0.6-1-0.7c0.4,0,0.7-0.1,0.9-0.4c0.2,0-1.8-1.5-2.4-1.6
		c-0.2,0.4,0.9,0.8,0.8,0.9c0-0.1-0.5,0.8,0.2,0.9c0.2-0.2,0.2-0.4,0-0.6c0.2,0.1,0.4,0,0.6-0.2c-0.3,0.8-0.3,0.9-0.9,0.8
		c-0.4,0.5,0.6,0.7,0.6,1.2c-2.1-1-4.2-2.3-6.2-3.5c0.8,0,0.6-1.2,1.5-1c-0.4,0.4-0.8,0.8-1.1,1.2c0.6,0.4,1.1-0.5,1.4-0.8
		c0.1,0.4,0.1,0.7,0.1,1.1c0.7,0.1-0.2-1,0.8-0.8c0-0.4,0.4-1,0.3-1.1c0.3,0.1,1.3,1.2,1.8,1.6c0.8-0.3-0.3-0.3,0.2-0.7
		c0.8,0.1,0.5,1.4,1.4,1.3c-0.1-0.1-0.2-0.3-0.1-0.5c1.6,0.9,3.3,2.1,4.4,3.5c0.5,0.7,1.1,2.6,2.1,3c-0.9-2.3-2.1-3.8-3.5-5.8
		c0.2-0.2,0.6,0.4,0.9-0.8c0.3,0.3,0.6,0.6,1,0.9c-0.6-0.1-0.2,0.1-0.9-0.6c-0.4,0.9,0.5,2,1.3,2.2c-0.8,0.3,0.2,1.6,0.4,1.2
		c-0.1-0.3-0.1-0.5-0.2-0.8c0.5,0.1,0.4,0.2,0.8,0.1c-1-1.5-0.9-2.8-0.6-4.1c0.1-0.3-0.1-1.6,0-1.9c0.2-0.8,1.7-0.2,1.5-1.1
		c-0.6,0.5-1,0.5-1.3,0c0.1-0.3,0.3-0.5,0.7-0.5c-1.9,0.7,0.5-3.5,0.5-3.4c0-0.6-0.7-2-0.7-2.8c0.1,0.5-0.4,0.8-0.6,1.2
		c-0.2-0.4-0.2-2.8,0.7-2.6c0.1-0.4-0.3-0.2,0-0.9c0.2,0.3,0.2,0.5-0.1,0.7c0.4,0,0.7-0.2,0.9-0.5c-0.6-0.1,9.2-4.4,6-0.9
		c0-0.2,2.9,3,3.2,3.4c0.6,0.8,0.7,1.1,1.4,1.2C150.1,58,150,58.3,150.1,58.9C151.2,59,150.1,58.6,150.1,58.9z M113.7,81.8
		c-0.1-0.4-0.1-0.8,0.1-1.1c0.5,0.1,0.8,0.4,0.9,1C114.4,81.8,114,81.9,113.7,81.8C113.4,81.6,114,81.5,113.7,81.8z M93.8,38.4
		c-0.9,0.6-1.8,2.1-2.9,2.4c-1.8,0.4-1.5-0.9-3.2-1.3c0.2-1-0.9-1.5-1.3-3c-0.2-0.6-0.8-3.3-0.2-3.8c1.1-0.9,1.5,0.3,2.1,0.3
		c0.4,0,0.2-0.3,0.2-0.6c0.7,0.1,1.6,0.6,2,0.9c-0.9,0.9-2.2,0-3,1.3c0.7,0.3,1.2,0,1.7-0.3c0.4,0.6-1.3,0.4-0.5,1.1
		c0.3,0,0.9,0.1,0.9,0c0.2-0.6,0.1-0.7-0.2-1.1C91.3,31.7,94.9,37.5,93.8,38.4C93.4,38.7,94.5,37.8,93.8,38.4z M117.2,80.3
		c-0.2,0.3-0.7,0.3-0.2,0.6c0.5-0.4,1.1-0.7,1.7-0.7C118.3,80.2,117.8,80.3,117.2,80.3z M98.8,43.5c1.9-0.5-0.4,4.7-2,4.9
		c0,0-4-3.4-3.7-4c0.5-0.9,2.6-0.8,3.3-1.7c-0.9,0.2-2-0.8-2.3-0.6c0.1,0.5,0.4,0.9,0.9,1.1c-1.7-0.2-2.5,2-3-0.6
		c-0.2-0.8,0.7-2.5,1.5-2.9C96.7,37.7,97.4,42.4,98.8,43.5C99.7,43.2,98.6,43.3,98.8,43.5z M106.6,53.4c0.7-0.2-0.4,3-0.1,2.6
		c-1.4,1.6-4.1-0.5-5.8-1.8c-3.1-2.4-2.8-3-0.8-5.6c1.9-2.5,2.2-3,4.9-0.3c-0.5-0.1-0.3,0.8-0.2,1.2
		C106.3,47.6,107.9,52.1,106.6,53.4C107.2,53.2,107.6,52.4,106.6,53.4z M100.6,46.7c-1.1,0.8-1.4,2.4-2.9,2.6
		c-0.9-0.2,2.8-3.9,3-3.3C100.5,46.2,100.5,46.4,100.6,46.7C99.6,47.3,100.3,46.5,100.6,46.7z M96,44.9c0.3,0.1,0.5,0.2,0.8,0.4
		c0-0.2,0.1-0.4,0.1-0.6C96.6,44.7,96.3,44.8,96,44.9z M143.2,50.4c-0.7,0.4-1.3,1-1.4,0.5c-0.7,0.5-1.7,1.4-2.5,1.6
		c-1.2,0.3-2-0.6-2.5-0.5c-1.1,0.3-1.1,1.3-2,1.8c-0.9,0.5-2.9-2.2-3.1-2c0.2,0.6,0.5,1.2,0.9,1.8c0,0-0.9-1.1-0.9-1
		c0,0-1,0-0.3,0.3c0.5-0.1-0.8-3-1.3-3.5c-0.2-0.5-2.9-2.9-3.6-3.2c0.2,0.1,0.4,0.1,0.5-0.1c-0.5-0.2-0.9,0-1.1,0.5
		c0.2,0,0.4,0,0.5,0c-1.3,0.1,1.7,3.6,1.7,4c-2,0.5-0.6,0.4-0.9,1.3c-0.1,0-0.3,0-0.4-0.1c0.6,0.1-0.3,0.9,0.4,0.8
		c0.1-0.2,0.2-0.4,0.3-0.5c0-0.1,0,0.8-0.2,0.5c1.1,0.9,1.6,1.9,2,3c-0.2-0.2-0.4-0.4-0.6-0.5c1.1,0.7-2.1,1.2-2.2,1.2
		c-1.1,0-2.1-0.5-3.1-0.6c0.1,0.6-0.7,1.4-1.4,0.4c0.3,0.5-2.2,1.4-2.7,1.8c1.2,0.1,2.2-0.5,3.4-0.8c0.2,0,1.6,0.2,1.7,0.2
		c-0.2-0.1-0.3-0.2-0.5-0.4c0.4,0,0.9-0.1,1.3-0.2c0.2,0.5-3.5,3.9-3.1,3.6c-0.5,2.5-1.6,1.3-3.8,2c1.2,1.1-5.6,1.7-6.5,1.5
		c-2.4-0.6-3.4-1.7-4.2-4.4c-0.7-2.4-1.2-1.3,0.6-3.1c1.1-1.1,0.8-1.4,2.3-1.1c-0.4-0.7,4.8-4.1,5.5-4.3c-0.4,0.3,0.7,1.1,0.7,1.2
		c-0.3,0.2,0,0.6-0.3,0.7c0-0.2-0.1-0.2-0.3-0.3c-0.1,0.4,0.4,1.1,0.8,1.3c0.5-0.2,0.1-0.9,0-1.1c0,0,1.1,0.7,1.1,0.7
		c0.2-0.2-0.5-1.2,0.5-0.4c0,0.2-0.2-1.2-0.4-0.8c0.8-0.7-0.9-1.2-1.7-1.4c-0.8-2.6,5.8-5.1,7.4-3.2c0.7-1.7,2.6-1.5,3.5-3.1
		c0.4-0.1,0.2,0.6,0.3,0.7c0-0.1,1,0.7,0.2-0.5c1.2,1.7,4.4-1.1,5.7,0.9c0.1-0.3,0.1-0.8,0.5,0c-0.2-0.1-0.3,0-0.4,0.3
		c0.7,1,1.3-1.3,1.7-1.6c0.7-0.5,3.2-1.2,4-0.8c1.7,0.8,0.5,1.4,1.1,2.2c-0.6-0.3-1-0.7-1.4-1.1c0.1-0.5,0,1.6-0.2,1.2
		c0.5-0.4,1.1,0.5,1.6,0.8c-0.6-1.7,2.2,1.1,2.1,1C143.4,48.6,144.1,48.8,143.2,50.4z M97.2,43.7c-0.4,0.6,0.6,0.8,0.9,0.6
		C97.7,44.5,97.9,43.4,97.2,43.7z M104.2,50.4c-0.4,0.2-0.3,0.3-0.8,0.2c0.1,0.6,0.1,0.5,0.1,1.2c0.2-0.2,0.4-0.3,0.6-0.5
		c0.1,0.4,0.4,0.7,0.8,0.8c-0.1-0.2-0.3-0.4-0.5-0.4c0.4-0.2,0.6-0.1,0.7,0.3c0.8-0.5-0.5-0.1,0-0.8c0,0,0.5,0.4,0.7,0.5
		C105.4,51.1,104.9,50.7,104.2,50.4z M103.8,49.3c0-0.1-0.1,0.9-0.3,0.5c0,0,1.3,0.3,1.4,0.3C104.6,49.8,104.3,49.5,103.8,49.3
		C103.7,49.5,104.4,49.4,103.8,49.3z M120.6,74.1C121.6,73.9,120.8,74.1,120.6,74.1C120.6,74.1,120.7,74.1,120.6,74.1z M121.8,73
		c0.6,0,0-1,0.9-0.5c-0.6-1.3,1.5-1.6,1.3-2.9C123.3,70.8,122,71.6,121.8,73C122.2,73,122,71.6,121.8,73z M124.4,72.8
		c0.2,0.7-0.4,1.6-1.3,2.1c0.9-0.6,1.6-1.3,2.1-2.3C125.1,72.8,124.8,72.9,124.4,72.8C124.5,73.1,124.7,72.8,124.4,72.8z
		 M125.7,73.3c0.6,0.4-1.9,1.8-2,2.3c0.9-0.7,1.7-1.6,2.7-1.5c0.3-0.5,0.7-1.1,1.2-1.8C127,72.7,126.3,73.1,125.7,73.3
		C125.9,73.5,126.5,73.4,125.7,73.3z M116,59.7c0.5,0.2,1,0.2,1.6,0.2c-0.1-0.3-0.1-0.6,0-0.9C117.1,59.5,116.6,59.8,116,59.7
		C116.3,60.1,116.4,59.6,116,59.7z M126.7,74.4c0.2,0.1,1.7,1.5,1.1,2.1C129.3,76.3,127.1,74.6,126.7,74.4z M119,61
		c-0.3-0.1-1.2-1-1.5-0.7c-1.1,1.3,2.5,1.2,2.8,1.3C119.9,61.3,119.5,61.1,119,61z M126.2,65.1c-0.1,3.2-5.3-1.2-5.4-1.1
		c0.4-0.7,3.6-0.4,4.3-0.5c0,0.2,0,0.2-0.2,0.6c0.3-0.1,0.6-0.1,0.9-0.2c0,0,0.6,0.4,1.3,0.6C126.9,64.8,126.6,65,126.2,65.1
		C126.2,65.9,126.8,65.4,126.2,65.1z M124.1,68.1c0.3,0.3,0.4,0.7,0.1,1c0.2-0.2,0.7-0.5,0.8-0.5c0-0.2,0-0.4,0-0.5
		C124.7,68.1,124.4,68.1,124.1,68.1C124.8,68.5,124.4,68.3,124.1,68.1z M125.9,69.6c-0.2-0.3-0.3-0.6-0.5-0.9
		c0.3,0.5-0.1,0.1-0.3,0.2c0.2,0.4,0.4,1.3,1.3,1.6C126.6,69.4,126.3,69.9,125.9,69.6C125.9,69.3,126.1,69.8,125.9,69.6z
		 M126.4,59.1c0,0.2,0,0.9-0.3,1.2c-0.1-0.2-0.1-0.4-0.2-0.6c-0.3,0.2-1.4,0.7-0.6,1.2c-0.1,0-0.2-0.1-0.3-0.3
		c-0.1,1.4,1.6,2.7,0.9,0.6c0.3-0.1,0.5-0.1,0.8,0.1c0-0.4,0-0.7-0.1-1.1c0.3,0.1,0.5,0.2,0.7,0.3c-0.3-0.1-0.9,1.4-1.3,1.6
		c-0.3,0.2-0.4,0.5-1.1,0.7c-1.4,0.4-0.5-1.3-1.5-1.5c0,0.5,0.2,1,0.4,1.4c-0.7-0.3-3-0.1-3-0.3c1.3,0,1.3-1.9,2.8-2.6
		c-0.7,0.1-0.1-0.3-0.5,0.2c-0.4-0.6,2.2-3,2.8-3c0.4,0,1.6,1.7,2,2.1C127.4,59.8,127.1,58.5,126.4,59.1
		C126.4,59.2,127.2,58.5,126.4,59.1z M126.7,70.7c-0.4,0.3,0.9,1.3,1,1.3C127.4,71.6,127,71.2,126.7,70.7
		C126.5,70.8,127,71.3,126.7,70.7z M120.5,60.9c0.7,0.2,0.2,0.1,1.1,0C121.2,61.1,120.8,61.1,120.5,60.9z M119.6,54.9
		c0.3-0.6-2.8-0.8-3.3-0.6c1.5-0.3,3.2,2.1,4.4,2.4c0.1-0.8-1.5-0.7-0.9-1c0.8,0.2-0.4,0.1-0.2-0.3c1.1,0.2,2.4,0.5,3.6,0.3
		C122,55.3,120.8,55,119.6,54.9C119.7,54.7,120.6,55.1,119.6,54.9z M124.2,64.4c0.3,0.4,0.9,0.8,0.6,1.5c0-0.1,0.3-1.2,0.3-1.6
		C124.7,64.2,124.4,64.2,124.2,64.4z M104.3,23.9c-0.1,0.5-0.3,1-0.6,1.4c0,0.1,0.2-0.8,0.2-0.7c-3.2,1.4-3.3,2.6-6.5,0.6
		c-1.9-1.2-4.2-4.9-2.8-7.6C97.8,11.8,102.9,21.6,104.3,23.9C104.1,24.3,103.4,22.4,104.3,23.9z M115.6,42.2
		c-0.6-0.1-0.3,0.4-0.4,0.5c-1.4,0.7-0.5-0.3-1.7-0.4c0,1,1.5,2.1-0.3,1.7c0.1,0.2,0.1,0.4,0.2,0.6c-0.2-0.2-0.4-0.3-0.6-0.4
		c0.1,0.3,0.2,0.5,0.3,0.8c-0.3-0.1-0.6-0.2-0.8-0.5c0.1,0.3,0.2,0.5,0.1,0.8c-1.8-2.6-8-4.9-4.1-8.3c2.2-2,3.3-1.8,4.9,0.1
		C114,37.9,116.1,40.6,115.6,42.2C115.2,42.1,115.9,41.2,115.6,42.2z M109.5,31.9c0.4,1.6-1.2,2.8-2.2,3.3c-2.1,1.2-1.1,1.3-3-1.4
		c-0.5-0.8-2.9-2.6-3-3.8c-0.2-1.9,2.9-3.6,4.4-4.1C106.4,27.8,108.5,30.6,109.5,31.9C109.8,33.1,109.5,31.9,109.5,31.9z
		 M130.9,71.1c-0.3-0.1-0.5,0-0.8,0.2c0.3,0.1,1.1,0.3,0.9,0.8C131.9,71.9,131.1,71.3,130.9,71.1C130.5,70.9,131.1,71.2,130.9,71.1z
		 M108.6,36.6c-0.7,0-1.4,0.3-1.9,0.2c0.9-0.6,1.9-1.7,3-2.2C109.6,35.4,109.2,36.1,108.6,36.6C107.9,36.6,109.2,36.1,108.6,36.6z
		 M117.2,51.3C117,51.4,117.7,51,117.2,51.3L117.2,51.3z M127.4,65.6c0,0.1,0.6,0.5-0.1,0.3c0.6-0.8-0.5-0.8,1-0.9
		C127.9,65,127.6,65.2,127.4,65.6C127.5,65.8,127.5,65,127.4,65.6z M105,29.3c-0.8,0-0.1-2-1.6-0.8c-0.1,0.1,0.4,1.5,0.1,2.1
		c0.2,0,0.4,0.1,0.6,0.1c0.1-1.9,0.8-0.5,1.5-0.7C105,29.1,105.5,29.5,105,29.3z M119,49.1c-3.2,2.2,0.7,1.4,0.5,3.6
		C119.9,52.9,120.7,47.9,119,49.1C118.7,49.2,119.4,48.8,119,49.1z M106.1,30.4c-0.4-0.1-0.5,0.5-1-0.3c-0.2,0.7,0,1.5,0.1,2.1
		C105.1,31.1,105.6,31.1,106.1,30.4z M128.8,66.1C128.7,66,129.4,65.4,128.8,66.1C128.7,65.9,128.8,66.1,128.8,66.1z M120.8,53.6
		c0.2,0.4,0.8,0.2,0.5,1.1C122.3,53.6,121,53.6,120.8,53.6z M141.6,84.1c0.2,0.6,0.4,0.6,0.6,0.2C142.4,83.8,141.7,84.1,141.6,84.1
		C141.6,84.5,141.8,84,141.6,84.1z M123.2,54.6c-0.5-0.2-0.7-0.5-0.8-0.9c0.3-0.2-0.1,1.7-0.1,1.5c0.4-0.2,0.7-0.2,0.9,0.2
		c0.1-0.3,0.1-0.6-0.1-0.9L123.2,54.6z M127.3,61.7c-0.1,0.7-0.2-0.1-0.2-0.5C127.7,61.6,128.1,61.5,127.3,61.7
		C127.3,61.8,127.6,61.6,127.3,61.7z M140.9,80.1c-0.1,1.4,0.3,1.4,0.7,3c0.1-1.3-0.3-3.7-1.1-4.9C140.5,78.9,140.7,79.5,140.9,80.1
		C140.9,80.6,140.4,79.5,140.9,80.1z M122.1,51.7c-0.8,0.1,0.4,0.1-0.5-0.4c-0.6-0.2-0.2,1.7-0.4,1.6c0.1-0.2,0.3-0.4,0.5-0.4
		c0.1,0.3,0.2,0.6,0.2,1c0.7,0.1-0.3-1.3,0-1.2c1.1,0.2,0.2,0.3,1,0.7C123.1,53.1,122.1,51.8,122.1,51.7
		C121.7,51.8,122.1,52.3,122.1,51.7z M135.9,73.3c0.3,0.8,0.8,0.9,1.4,1.4C136.9,73.7,136.4,73.8,135.9,73.3z M128.3,60.7
		c0.2,0.3,0.5,0.7,0.7,1c-0.3-0.6-1-0.2-1.1-0.3c-0.3-0.4,0.3-1.1,0.4-1.3C128.7,60.4,128.6,60.5,128.3,60.7
		C128.2,61.2,128.4,60.6,128.3,60.7z M130,59.5c0-0.4,0-0.7-0.1-1.1c-0.5-0.2-3.2,1.4-3.5-1.4c0.8,0.2,2-0.2,2.4,0
		C129.6,57.3,131.6,59.8,130,59.5z M134.9,67.4c0,0-1.3-0.3-0.3-0.7C134.7,66.9,134.8,67.2,134.9,67.4z M128.4,58.4
		c0.1,0.3,0.4,0.1,0.6,0.1C128.8,58.3,128.2,57.9,128.4,58.4z M125.6,53.6c0.4-0.1,1.3-0.2,1.4-0.2C126.8,53,126.3,53.1,125.6,53.6z
		 M127.7,52C127.5,51.9,128.1,51.1,127.7,52C127.5,51.9,127.7,52,127.7,52z M125.5,48.2c0.9-0.3-0.6-1.1-0.6-1.1
		C125.2,47.5,125.4,48,125.5,48.2z M124.7,34.2c0.3-0.2-0.4,2.8-0.9,1.4c0.5,0.5,2.1,2.8,1.7,3.5c-0.8,0.2-2.6-0.3-2.4-1.4
		c0.9,0.5,1.1-0.8,0.7-1.1c-1.2-1.2-2.3,0.7-3.1-0.4c-1-1.3,0.8-4.8,2.5-3C122.6,31.9,124.6,32.8,124.7,34.2
		C123.8,34.8,124.7,33.7,124.7,34.2z M138.7,61.5c0,0,0.6,0,1,0.2C139.3,61.8,139,61.8,138.7,61.5z M115.7,16.8
		c0.8,2.8,2.9,3.3-0.6,4.8c-2.8,1.2-3.6-0.3-5.4-2.9c-1.3-1.8-3.2-5.7-0.3-7.2C112.8,9.8,115,14.6,115.7,16.8
		C115.9,17.3,115.4,15.8,115.7,16.8z M121.3,28.2c-0.9,0.6,0.5,1.1,0.6,1.4c-0.9,1-1.7-0.2-2.7,0.7c-0.8-0.5,0.2-1,0.6-1
		c-0.6-1-1.1,0.1-1.8-0.4c0.2-0.2,0.4-0.4,0.6-0.4c-0.4-0.1-0.8-0.2-1.2-0.4c0.2-0.2,0.3-0.4,0.3-0.6c0.1-0.1-0.7,0.6-0.5,0.6
		c-1.4-2.3-4.1-3.7-0.8-5.7C119.6,20.2,119.7,25.4,121.3,28.2C120.8,28.5,120,26,121.3,28.2z M117.1,25.9c-0.5-0.7-0.4-1.2-0.3-1.8
		c-1.2,1.2,0.1,1.5,0.8,2.9c0.3-0.3,0.5-0.6,0.8-0.9c0.3-0.1-1.9,0.8-1.1,0.1c-0.1,0.1,2.1-0.8,1.2-1.2
		C118,25.3,117.6,25.5,117.1,25.9C116.9,25.6,117.5,25.1,117.1,25.9z M135.2,48.3c-0.2-0.1-0.5-0.3-0.7-0.4c0,0.2,0.3,0.8-0.3,0.7
		c0.9-0.2,0.3,0.2,0.2,0.4C134.7,48.9,135,48.6,135.2,48.3c0.3,1.1,0.7,2.1,1.3,3.2c-0.3-1.5-1.2-2.9-1.1-4.5
		C134.9,47.4,134.9,47.8,135.2,48.3z M137.3,46.4c0.1,0.5,0.1,1,0.1,1.5c-0.6,0-0.8-1.9-0.4-2.1c-0.2,0.1-0.4,0-0.6-0.1
		c0.1,0.3,0,0.4-0.3,0.3c0.4,0.3,0.3,2.6,0.6,3.6c0.4,0.1,0.2-0.6,0.7,0.3c-0.4-0.5-0.4-0.9-0.1-1.4c0.1,0.3,0.3,0.4,0.5,0.6
		c-0.3-0.6-0.3-1.2,0-1.8C137.9,47.4,137.1,46.3,137.3,46.4z M145,53.6c0,0.3,0.8,0.8-0.3,0.6c0-0.1,0-0.3,0.1-0.4
		c-0.9,0.6-0.2,0.4-0.8,0.2c-0.1,0.2-0.2,0.4-0.3,0.5C145.1,55.2,145.2,54.1,145,53.6z M135.3,22.5c0.2,1.6-1.4,1.1-1.4,1.9
		c2.1-1.2,3.2,4.2,3.3,5.2c0.2,2.9,0.1,0.6-1.7,2.8c0.5-0.1,1.1-0.1,1.6-0.2c0,0.1,0.1,0.2,0.1,0.4c-1.1,0.5-2.2,1-3.3,1.6
		c1.5,0.5,2.4-1.4,3.5,0.3c0.6,1-0.5,1.7-0.4,2.4c0.2,2.3,1.2,4.2-0.8,1.3c-0.8-0.2,0,0.4-0.3,0.6c-4.5-1.9-1.3-8.2-5-11.1
		c-0.7-1.5,0.7-1.8,2.1-2.5c-3.2-0.8-4.3-2-5.1-5.6c-0.7-3,0.1-6.4,3.7-4.7C134.5,16,134.3,19.2,135.3,22.5
		C135.4,23.1,134.8,20.8,135.3,22.5z"/>
	<ellipse style="fill:#FFF04B;" cx="148.7" cy="117.4" rx="34.9" ry="30.7"/>
	<g>
		<path d="M150.4,153.8c-22.6,0-36.6-14.3-36.6-36.3c0-20.8,14.3-36,33.6-36c25.6,0,40,12.5,40,36.3
			C187.3,139.7,173,153.8,150.4,153.8z M150.7,147.1c12.2,0,24.4-10.1,24.4-29c0-21.4-11.9-29.9-24.7-29.9
			c-12.2,0-24.7,10.1-24.7,27.5C125.7,135.2,135.4,147.1,150.7,147.1z"/>
		<path d="M242.5,136.7l-19.2-0.3c-18.9,0-25.6,3.4-25.6,13.7c0,9.2,10.1,18,20.4,18c4.9,0,8.5-0.6,10.7-2.1l7.9-5.2
			c1.5-0.9,1.8-2.1,4.9-2.1c8.2,0-0.6,15.6-24.4,15.6c-20.1,0-33.6-13.7-33.6-35.1c0-22.6,11.6-37.2,33.6-37.2
			c26.2,0,32,21.4,32,29.3C249.2,134.9,247.3,136.7,242.5,136.7z M215.3,134.6h5.2c7.3,0,14.3-5.5,14.3-11.6c0-7.6-6.1-15-17.1-15
			c-11.6,0-18.6,6.1-18.6,14C199.1,129.4,206.1,134.6,215.3,134.6z"/>
		<path d="M197.8,181.3l-19.2-0.3c-18.9,0-25.6,3.4-25.6,13.7c0,9.2,10.1,18,20.4,18c4.9,0,8.5-0.6,10.7-2.1l7.9-5.2
			c1.5-0.9,1.8-2.1,4.9-2.1c8.2,0-0.6,15.6-24.4,15.6c-20.1,0-33.6-13.7-33.6-35.1c0-22.6,11.6-37.2,33.6-37.2
			c26.2,0,32,21.4,32,29.3C204.5,179.5,202.6,181.3,197.8,181.3z M170.6,179.2h5.2c7.3,0,14.3-5.5,14.3-11.6c0-7.6-6.1-15-17.1-15
			c-11.6,0-18.6,6.1-18.6,14C154.4,174,161.5,179.2,170.6,179.2z"/>
	</g>
	<g>
		<path d="M15.9,163.5c6.4-3.2,14.5-0.8,17.8,5.7c3.3,6.5,0.5,14.5-5.9,17.7c-6.4,3.2-14.5,0.8-17.8-5.7
			C6.6,174.7,9.5,166.7,15.9,163.5z M26.3,184.1c5-2.5,6.6-8.4,4.2-13.3c-2.4-4.8-8.1-7-13.2-4.5c-5,2.5-6.6,8.4-4.2,13.3
			C15.6,184.4,21.3,186.6,26.3,184.1z"/>
		<path d="M43.6,172l-2.3-1.7l5.5-8.2c-1.5-0.5-2.5-0.6-4.3,0.3c-3,1.5-4,4.8-2.4,7.9c1.6,3.2,4.9,4.3,7.8,2.8
			c3.4-1.7,3.6-4.4,2.8-7.5l3.1-1.1c1.8,4.3,0,9.1-4.4,11.3c-4.3,2.2-9.7,0.8-12.2-4c-2.4-4.8-0.3-10,4-12.2c3.6-1.8,7-1.1,10,1.1
			L43.6,172z"/>
		<path d="M65,148.1l4.6,9.1c2.1,4.1,0.6,8.2-3.2,10.2c-3.8,1.9-8,0.6-10.1-3.4l-4.6-9.1l2.9-1.4l4.6,9.1c1.2,2.4,3.8,3.2,5.9,2.2
			c2-1,2.9-3.6,1.7-6l-4.6-9.1L65,148.1z"/>
		<path d="M81.3,139.8l1.8,17c0.2,1.7-0.4,2.2-1.4,2.7c-1,0.5-1.8,0.7-3-0.5l-12.6-11.6l3.1-1.6l10.6,9.8l-1.6-14.3L81.3,139.8z"/>
		<path d="M82.3,139.4L85,138l0.9,1.8l0.1,0c0.2-2,1.2-3.3,3.1-4.2l0.6-0.3l1.4,2.7l-0.4,0.2c-2.8,1.4-3.5,3.9-1.4,8.1l3.7,7.3
			l-2.9,1.4L82.3,139.4z"/>
		<path d="M101.2,142.9l-2.3-1.7l5.5-8.2c-1.5-0.5-2.5-0.6-4.3,0.3c-2.9,1.5-4,4.8-2.4,8c1.6,3.2,4.9,4.3,7.8,2.8
			c3.4-1.7,3.6-4.3,2.8-7.5l3.1-1.1c1.8,4.3,0,9.1-4.4,11.3c-4.3,2.2-9.7,0.8-12.2-4c-2.4-4.8-0.3-10,4-12.2c3.6-1.8,7-1.2,10,1.1
			L101.2,142.9z"/>
		<path d="M39,203.7l-11,5.5c2.4,4.2,7.8,5.4,11.8,3.4l2.9-1.5l1.4,2.9l-2.4,1.2c-6.8,3.4-14.2,1-17.5-5.4c-3.2-6.4-0.8-13.8,6-17.3
			l2.4-1.2l1.4,2.9l-2,1c-5.9,3-6.6,8.8-5.5,11.2l11-5.5L39,203.7z"/>
		<path d="M47,212.6l-4.6-9.1c-2.1-4.1-0.6-8.2,3.2-10.2c3.8-1.9,8-0.6,10.1,3.4l4.6,9.1l-2.8,1.4l-4.6-9.1
			c-1.2-2.4-3.8-3.2-5.9-2.2c-2,1-2.9,3.6-1.7,6l4.6,9.1L47,212.6z"/>
		<path d="M63.5,204.3l-8.6-17c-1.8-3.5-0.6-6.8,2.6-8.5l2.4-1.2l1.4,2.7l-2,1c-1.9,0.9-2.6,2.4-1.6,4.4l0.8,1.5l4.7-2.4l1.4,2.7
			l-4.7,2.4l6.5,12.8L63.5,204.3z"/>
		<path d="M84.7,193.6l-4.4-8.7c-1.5-2.9-4.7-3.2-7.3-1.9c-3.1,1.6-3.9,5.1-2.4,8c1.5,2.9,4.8,4.2,7.8,2.7c1.6-0.8,2.5-2.4,2.8-4.1
			l1.7,3.4c-0.7,1.4-1.5,2.6-3.5,3.6c-4.5,2.3-9.5,0.2-11.8-4.4c-2.2-4.4-1-9.5,4-12c4.8-2.4,9.3-1,11.6,3.4l4.3,8.5L84.7,193.6z"/>
		<path d="M90.3,190.7l-4.6-9.1c-2.1-4.1-0.6-8.2,3.2-10.2c3.8-1.9,8-0.6,10.1,3.4l4.6,9.1l-2.8,1.4l-4.6-9.1
			c-1.2-2.4-3.8-3.2-5.9-2.2c-2,1-2.9,3.6-1.7,6l4.6,9.1L90.3,190.7z"/>
		<path d="M110.5,164.4l-2.2,1.1c-2.7,1.4-4.5,4.5-2.8,7.8c1.7,3.3,5.2,3.7,7.9,2.4l2.2-1.1l1.4,2.7l-2.7,1.4
			c-3.6,1.8-9.2,1.2-11.7-3.8c-2.5-5,0.3-9.9,3.9-11.7l2.7-1.4L110.5,164.4z"/>
		<path d="M121.1,168.7l-2.3-1.7l5.5-8.2c-1.5-0.5-2.5-0.6-4.3,0.3c-3,1.5-4,4.8-2.4,8c1.6,3.2,4.9,4.3,7.8,2.8
			c3.4-1.7,3.6-4.3,2.8-7.5l3.1-1.1c1.8,4.3,0,9.1-4.4,11.3c-4.3,2.2-9.7,0.8-12.2-4c-2.4-4.8-0.3-10,4-12.2c3.6-1.8,7-1.2,10,1.1
			L121.1,168.7z"/>
		<g>
			<path d="M54.6,230.8l-11.9,6c2.6,4.5,8.5,5.9,12.8,3.7l3.2-1.6l1.6,3.1l-2.6,1.3c-7.4,3.7-15.5,1.1-19-5.9
				c-3.5-7-0.9-15,6.5-18.8l2.6-1.3l1.6,3.1l-2.2,1.1c-6.5,3.3-7.1,9.6-6,12.2l11.9-6L54.6,230.8z"/>
			<path d="M61.2,237.8l8.7-4.4c1.4-0.7,1.7-1.6,1.2-2.6c-1.6-3.1-11.6,3.5-14.6-2.4c-1.5-3-0.2-5.6,3.5-7.5l7.3-3.7l1.5,3l-7.8,4
				c-1.5,0.8-1.7,1.4-1.3,2.5c1.5,2.9,11.5-3.7,14.6,2.4c1.6,3.2,0.1,5.9-2.9,7.4l-8.7,4.4L61.2,237.8z"/>
			<path d="M82.6,240.2l-7.9-15.6c-2.8-5.6-1.1-11.1,3.8-13.6c5.5-2.8,10.9-0.2,13.4,4.8c2.4,4.7,0.4,10.3-3.9,12.5
				c-1.7,0.9-3.5,1.3-5.4,1.2l-1.6-3.2c1.5,0.2,3.6,0,5-0.7c3.3-1.7,4.4-5.1,2.6-8.6c-1.7-3.5-5.3-4.7-8.6-3c-3,1.5-4.3,5-1.9,9.7
				l7.6,15L82.6,240.2z"/>
			<path d="M98,201.2c4.7-2.4,10.6-0.8,13.2,4.4c2.6,5.2,0.4,10.9-4.3,13.2c-4.7,2.4-10.6,0.8-13.2-4.4
				C91.1,209.3,93.3,203.6,98,201.2z M105.4,215.9c3.2-1.6,4.3-5.2,2.6-8.6c-1.7-3.5-5.3-4.7-8.5-3.1c-3.2,1.6-4.3,5.2-2.6,8.6
				C98.7,216.3,102.2,217.5,105.4,215.9z"/>
			<path d="M110.1,188.5c1.2-0.6,2.3,0,2.8,0.9c0.5,1,0.3,2.2-0.9,2.8c-1.2,0.6-2.3,0-2.8-0.9C108.6,190.4,108.9,189.1,110.1,188.5z
				 M119.9,211.8l-8.5-16.9l3.1-1.6l8.5,16.9L119.9,211.8z"/>
			<path d="M119.4,190.9l3-1.5l1,1.9l0.1,0c0.2-2.2,1.3-3.6,3.4-4.6l0.7-0.4l1.5,3l-0.5,0.2c-3,1.5-3.8,4.2-1.5,8.8l4,7.9l-3.1,1.6
				L119.4,190.9z"/>
		</g>
	</g>
	<path d="M185.2,66.8c-0.1-0.7,0.6-2,0.3-2.6c0,0-1.7,0.3-1.8,0.1c-0.1-0.1-0.1-0.3,0-0.4c0.1,0.1,0.3,0.1,0.4,0.2
		c0.2-0.8-0.2-3.9,1.8-1.3C186.7,64,186.1,66.4,185.2,66.8z M188,99.7c-0.9,2.3-8.1,1-9.5-0.2c-1.3-1.1-3.2-5.2-1-6.4
		c-0.2-0.1-0.4,0.1-0.6,0c0-0.2-0.1-0.3-0.1-0.5c0.6-0.2,1.7-0.5,2.1-1c-0.4-0.5-1.8,0.7-2.5,0.4c1.1,0.2-2.5-1.9-1-0.3
		c0-0.4-0.7-1.3,0-1.8c-5.6-1.1-1.1-11,0.4-13.8c1.8-2,3.6-4,4.5-6.9c0.6-1.9,0.5-5,2.4-6.2c-0.1,0.8-0.1,1.6,0.2,2.4
		c0.1-0.1,1.3-0.6,1.4,0c0,0-0.6,0.6-0.6,0.6c0.1,0.2,1,1.1,1.3,1.1c0.1,0.4-1.4,0.9-1.2,2.1c-0.5,0.3-1,0.3-1.5,0
		c0.2,1.3,0.4,0.7-1,0.9c1.9,0-1.3,1.1-1.5,1.1c0.3,1.1,0.2-0.2-0.2,0.8c0.5,0.3,0.9,0.6,1.3,0.9c0.4-0.5,0.2-0.7-0.4-0.8
		c1.4-0.4,0.2,0.3,0.7,0.4c0-0.3,0.2-0.4,0.4-0.4c0.1,0.3,0.2,1.1,0.2,1.3c-0.3-0.2-0.5-0.4-0.5-0.8c-0.6,1.2,0.6,3.6-0.7,4
		c0.2,0.1,2.3,0.8,2.4,0.8c1.4-1.9,2,2,1.6,3c0.5-0.5,0.1-1.6,0.9-1.1c-0.2-0.5-0.2-0.9,0-1.4c0.7-0.2,1,1.2,1.4,1.6
		c-0.3-0.5-0.5-1-0.4-1.5c1.7,0.3,3.1,0.3,4,2c0.2,0.4,0.1,1.4-0.6,0.6c0,0.1,0.4,1.9-0.3,1.4c0,0,0.2,0.3-0.3,0.5
		c0,0.1,0.1,0.2,0.2,0.2c-0.2,0-0.5-0.1-0.4-0.1c-0.2,0.3-0.9,1.2-1.1,1.5c-0.7-0.2,0.2-0.8,0.2-0.8c-0.5-0.5-1.5-0.6-2.1-1.9
		c-0.7,0,1.1,2.1,1.1,1.9c-0.2,1.2,0,1.1-1.1,2.5c-1,1.3-2.5,2.3-3.7,3.3c0.6,0.2,1.8-1,2.3-1.1c-0.5,0.3-0.9,0.7-1.3,1.1
		c-0.8,0.1,1.7-0.1,1.6-0.2c-0.1-0.2-0.1-0.4-0.2-0.7c0.3,0.1,0.3,0.2,0.1,0.3c0.2,0.3,0.4,0.3,0.7,0.2c0.2-0.3-0.6-0.6-0.7-0.6
		c0.2-0.1,0.4-0.3,0.5-0.4c-0.1,0.2,0,0.4,0.1,0.6c0,0,1.1-0.7,1.3-1c0,0-1.2,0.2-1.2,0.2c-0.1-0.1,0.4,0.5,0.3,0.5
		c-0.5-0.3-0.6-0.5-0.3-0.6c-0.2-0.3-0.5,0.2-0.7,0.1c0.9-1,2-1.9,3-2.8c0.2,0.3,0.3,0.7,0.3,1c-0.1-0.3-0.3-0.5-0.5-0.8
		c-0.4,0.3,0.2,0.7,0.2,0.9c-0.2,0-0.4-0.1-0.6-0.2c0,0.1,0.8,1,0.8,1c-0.5,0.5-1.1,0.1-0.8,0.9c-0.4,0.1-0.7,0.3-0.9,0.6
		c0.1-0.1,0.2,0,0.3,0c-1,0.9-4,1.5-4.7,2.4c1.5-0.1,2.4-0.5,3.8-0.9c0,0.5,0.6,0.7-0.4,1c0,0,0.2-0.6,0.5-0.4
		c-0.4-0.4-1.2-0.1-1.4,0.3c0-0.5-0.9-0.2-0.7,0c0.1,0,0.3,0,0.4,0c-0.2,0.4-0.1,0.1-0.2,0.4c1.1-0.3,1.3,0,2.4,0.3
		c0.3,0.1,1.5,1.4,1.4,1.4c-0.2-0.4-0.1-0.6,0.2-0.7c0.2,0.1,0.2,0.3,0.1,0.5c0-0.1,2.8,0.7,3.4,1c-0.2,0-0.5-0.3-0.5-0.5
		c0.3-0.1,1.6,0.6,1.6,0.6c0.1,0.1,0.1,0.2,0.2,0.4c-0.6,0.3-0.1,0,0,0.4c0.3,1.2,0.7,2.4,0,3.7c-0.5,1-0.8-0.1-0.8-0.2
		C191.5,97.9,188.8,99.7,188,99.7C187.7,100.3,188.1,99.7,188,99.7z M208.9,72.5c-0.7-2.4-1.3-2.2,0.5-3.5c3.9-2.8,6.5-0.4,3.4,1.6
		c0,0.2,0,0.5-0.5,1c-0.1-0.3-0.1-1.5-0.2-1.9c-0.2,0.3-0.3,0.7-0.1,1c-0.4,0.1,0-0.8-0.5-0.5c0.5,0.8-0.2,0.1-0.2,0.5
		c0.2,0.3,0.5,0.3,0.6,0.1C213,72.3,209.2,73.3,208.9,72.5C208.8,72.2,209.1,73,208.9,72.5z M205.3,74.3c-0.1,1.9-2.6-2.5-2.4-2.3
		c0-0.1,2.9-1.1,2.9-1c0.1,0,0.3,2,0.4,2.1c0-0.3,0.8-1,0.8-1.2c-0.3,0-0.5,0.1-0.7,0.3c0.3-0.6-0.5-2.1,0.9-1.5
		c0.4,0.2,1.2,0.8,1.3,1.3C208.8,74.2,206.2,73.7,205.3,74.3C205.2,74.8,205.4,74.2,205.3,74.3z M198.5,76.9c0,0.4-1.6-0.7-1.4-0.5
		c-0.6-0.8,2.2-3.7,3.4-3.7c2.2,0,3.5,2.9,1.1,4c0.1-0.2-0.4-0.3-0.6-0.3C201.7,77.7,199,77.8,198.5,76.9
		C198.5,77.3,198.9,77.6,198.5,76.9z M203.2,74.7c-0.5-0.6-0.8-1.3-0.9-2.1C202.1,73.1,204.2,74.1,203.2,74.7
		C203,74.1,203.4,74.6,203.2,74.7z M193.8,97.4c-0.2-1.2,0.8-5.1-0.8-5.3c-0.1-0.7,2.1-0.8,1.9-1.2c-0.4,0-0.7,0.1-1.1,0.2
		c0.3-0.1,0.9-0.8,0.6-0.6c-0.2,0.9,4.2-1.2,4.5-1.5c0.5-0.5-2.9,0.2-3.1-0.8c-0.2,0-0.4,0-0.5,0.1c0.3,0.2,0.3,0.3,0.1,0.3
		c-0.3,0-1.5,0.3-2.1,0.3c0.2-0.6,0.3-1.9,1-3.2c-0.1-0.5,0-1.4-0.5-2.6c-0.1,0.4-0.6,2.7-0.6,2.9c0.4-0.4,0.5-0.2,0.2,0.6
		c-1.6,0.1-1.9-4.1-1.9-4.7c0.4-0.2-0.6-7.5,4.2-5.5c0.9,0.4,1.4,1.9,1,2.5c0.3-0.1,1.4,3.4,1.4,3.8c-0.1-0.2-0.7,0.2-0.8,0.2
		c0,0-0.3-0.6-0.3-0.6c0.1-0.1-0.8,0.5-0.6,0.4c0,0.4,0.6,0.1,0.6,0.2c0,0-0.6,0.5-0.6,0.5c0.4,0,0.4,0.1,0.1,0.4
		c-0.1,0,0.7,0.1,0.5-0.1c0.4,0,0.5,0.2,1.1-0.7c1.1,0,1.3,2.3,1.4,3c0.1,1.5-1.4,2.5,0.2,4.1c0-0.2-1.1,0.5-0.2,0.2
		c-0.8,0.3-1,3-1.3,3.2c-0.1,0-0.6-0.1-0.5,0c0.3-0.4,0.7,2.8,0.7,3.1c-0.1,0.9-2.7,1.1-0.7-0.1c-0.3,0.2-0.5,0.1-0.6-0.3
		C197.3,96.6,194.9,98.5,193.8,97.4z M200.5,76.1c-0.2-0.4,0.1-0.4-0.6-0.6c0-0.1-0.3,1-0.4,0.7c0.1-0.1,0.3,0,0.5,0.2
		c-0.2,0-0.3,0-0.1,0.1C199.2,76.9,199.4,76.7,200.5,76.1z M185.2,81.8c-0.1,0.2,1.1,1.7,1.5,1.8C186.3,82.9,185.8,82.3,185.2,81.8
		C185.1,82,185.9,82.1,185.2,81.8z M184.3,83.8c-0.2,0.1-0.8-1.5-0.9-1.5c0.1,0.7,0.5,1.2,0.3,1.7c0.1,0.2,0.6,0.7,0.8,1
		C184.4,84.6,184.3,84.2,184.3,83.8C184.2,83.9,184.1,84.3,184.3,83.8z M190.4,80.5c0.1,0.1,0,0.2,0.1,0.2
		C190.5,80.6,190.5,80.5,190.4,80.5z M196.7,79.2l0.1,0L196.7,79.2z M193.4,80.9c-0.2,0.2-0.3,0.5-0.4,0.8c0.2,0,0.4,0,0.5,0.2
		C193.3,81.6,193.3,81.2,193.4,80.9C193.1,81,193.4,81.2,193.4,80.9z M192.2,82.4c0.2-0.1,0.7-0.5,0.6-0.7c-0.5-0.8-1.4,1.8-1.2,1.3
		C191.9,82.8,192,82.6,192.2,82.4z M188.9,83C188.9,83,188.3,83.6,188.9,83L188.9,83z M188.7,85.6c-1.4-0.5,1.2-3.1,1.7-2.6
		c-0.2,0.8-0.6,2-0.8,2.2C189.5,85.3,188.2,86,188.7,85.6C188.3,85.4,188.4,85.8,188.7,85.6z M187.4,83.9c-0.3,0.3-0.7-0.3-0.4,0.4
		C187.6,84.6,187.1,84.1,187.4,83.9C187.1,84.2,187.3,84,187.4,83.9z M186.3,84.6c0.5,0.2,0.6-0.1,0.5-0.3c-0.2,0.1-0.8,0-1.1,0.4
		C186.3,85,186.1,84.7,186.3,84.6C186.5,84.7,186.2,84.7,186.3,84.6z M191.9,86.7c0,0-0.6-0.3-0.6-0.4c0-0.2-0.1-0.5,0-0.7
		c-0.3-0.1-0.6-0.1-1-0.1c-0.7,0.7,0.4,0.5,0.5,0.5c0.4,0.6-0.5,0.2,0.4,0.5c0,0.7-0.9-0.4-0.9-0.2c0.1-0.2-0.2-0.6-0.2-0.8
		c-0.2-1,0.8-0.4,1.1-0.9c-0.3-0.1-0.6-0.1-0.8,0c0.3-0.3,0.5-1.6,0.7-1.6c0,0.5,0.8,1.1,0.9,2c0.2-0.2,0.2-0.3,0-0.3
		c1-0.3,1.3,2.4-0.3,2.8C191.7,87.2,191.9,87,191.9,86.7C191.9,86.6,192.2,87.2,191.9,86.7z M195.4,83.7c0.3,0.3,0.9-1.4,0.9-1.7
		c-0.1,0.8-1.7,1.4-2,2c0.3,0,0.5-0.1,0.6-0.5c0.1,0.1,0.1,0.2,0,0.3c0.1-0.2,0.2-0.2,0.3-0.2c-0.3,0.6-0.6,1.2-0.8,1.9
		C194.8,85,195.1,84.4,195.4,83.7C195.5,83.8,195.1,84.2,195.4,83.7z M215,80.8c-0.2-0.2-0.4-0.4-0.7-0.6c0.2-0.1,0.3,0,0.3,0.2
		c-0.2-2-1-2.2,0.8-3.7c0.9-0.7,4.1-1.5,5,0C222.1,79.7,216.4,80.4,215,80.8C214.8,80.5,216,80.5,215,80.8z M203,83.7
		c0.1-0.1,0.2-0.8,0.3-1.1c-0.4-0.1-1.8-0.5-0.9-0.7c-0.2,0-0.3,0-0.5,0c1.2-0.4,0-0.3-0.1-0.4c2-0.6,3.8-3.4,5.2-0.8
		C208.3,82.8,204.8,85,203,83.7C203.2,83.5,203.5,84.1,203,83.7z M209.8,82.2c-0.8-0.1-1.3-1.2-1.4-1.8c-0.3-1.5-1,0,0.9-1.4
		c2-1.4,4.4-0.9,4.5,2.1C212.5,81.2,210.6,81.9,209.8,82.2C209,82.1,209.7,82.2,209.8,82.2z M207.3,80.9c-0.3-0.6-0.2-1,0.2-1.1
		c0.2,0.6,0.6,1.4,0.7,2C207.9,81.5,207.6,81.2,207.3,80.9C207.4,80.5,207.5,81.3,207.3,80.9z M197.8,83
		C197.8,82.9,197.9,83.4,197.8,83L197.8,83z M188.2,86.1c-0.5,0,0.1-0.2,0.3-0.1c0.2,0.2,0.2,0.4,0,0.5
		C188.3,87,188.5,86.3,188.2,86.1C188.1,86.1,188.5,86.3,188.2,86.1z M211.9,80.2c0.2-0.6,0.8,0.4,0.7-0.7c-0.2-0.2-0.8,0.1-1.1-0.3
		c-0.1,0.1-0.1,0.2-0.2,0.3c1.1,0.4,0.1,0.6,0.1,0.9C212,80.6,212.2,80.5,211.9,80.2z M196.8,83.6c0.1,0-0.3,0.4-0.5,0.5L196.8,83.6
		z M198.7,84.4c-0.7-2.2-0.9,0.1-2-0.3C196.4,84.2,199.1,85.6,198.7,84.4C198.7,84.2,198.8,84.6,198.7,84.4z M211.2,80.6
		c0-1,0.6-0.6-0.8-0.8C211,79.9,210.8,80.2,211.2,80.6z M187.7,86.8C187.8,86.8,188,87.3,187.7,86.8
		C187.8,86.8,187.7,86.8,187.7,86.8z M182.6,89.4c-0.5,0-0.6,0.3-1,0.5C182.1,89.9,182.2,89.6,182.6,89.4z M191.1,88.6
		c0.2-0.1,1.2-1.7,2-1.5C192.8,88.5,191,88.8,191.1,88.6z M205.8,90.1c-0.5-1.8-2,0.5-2.8-0.4c0-0.5,0.5-1.4,1.2-1.1
		c-1.2,1.2,2.4-1,1.3-1.1c1.2,0.1,2,0.7,1.2,1.9c0.3,0,0.4,0.1,0.4,0.4C206.7,90,206.2,90.2,205.8,90.1
		C205.7,89.5,206.1,90.2,205.8,90.1z M196.1,90.7l-0.2,0.1L196.1,90.7z M216.9,88.2c-1.2,0-1.8,0.8-2.5-0.3
		c-1.1-1.8,0.9-2.6,2.2-3.1C221.3,83,222.2,88,216.9,88.2C216.6,88.2,217.5,88.2,216.9,88.2z M209.7,89.2c-0.2-0.6-0.7,0.1-0.9,0.1
		c-0.2-0.3,0-1.8,0.4-1.6c0.2,0.1,0.2,0.4,0.1,0.5c0.6-0.2,0.1-0.7,0.5-0.9c0.1,0.1,0.1,0.3,0.1,0.4c0,0,0.7-1,0.7-0.3
		c0-0.3-0.3-0.1-0.2-0.4c1.2-0.3,3.3-1.6,3.4,0.8C214,89.6,211.3,88.9,209.7,89.2C209.6,88.9,211.1,88.9,209.7,89.2z M211.7,87.4
		c0.4-0.1,0.7,0.1,1,0.2c-0.8-0.6-0.6-0.2-1.7-0.1c0.1,0.2,0.2,0.4,0.3,0.6c-0.3-0.1,0-0.8,0.2-0.6c0-0.1,0.1,1.3,0.4,0.9
		C211.9,88,211.8,87.7,211.7,87.4C211.9,87.3,212.1,87.7,211.7,87.4z M194.7,93l0.3,0L194.7,93z M197.5,93.3
		C197.7,93.4,197.2,93.2,197.5,93.3L197.5,93.3z M197,94.8c-0.3,0-0.6-0.1-0.8-0.2c0.2-0.7,1,0.5,1.4-0.2c-0.2,0-0.2-0.1-0.1-0.2
		c-0.2,0.1-1.9,0-2.3,0.1c0.3-0.1,0.6-0.1,0.8,0.2c-0.2,0-0.3,0.1-0.4,0.2C196.4,94.5,196.5,95,197,94.8z M197.6,95.2
		c0.1-0.1-0.6,0.4-0.6,0.6C197.7,96,197.4,95.7,197.6,95.2C197.5,95.3,197.4,95.6,197.6,95.2z M210.4,97.9c-0.9-0.2-0.3-1-0.8-1.1
		c0.3,1.5-3.3,1.1-4,1c-0.9-0.1-0.3-0.9-0.7-1.5c-0.1,0.3-0.1,0.6-0.2,0.9c-0.8,0.1-1-0.6-0.5-2.1c-1,1.4,0.3,1.3-1.4,1.7
		c0.2,0-2.6-0.8-2.4-0.6c-0.2-1.1,1.4-0.3,1.2-0.8c-0.1,0.1-0.2,0.1-0.3,0c1.2-1.4,3.4-0.6,4.8-0.5c1.9,0.1,2.8-1.1,3.2,1.3
		c1.7-2.8,8.4-2,5.6,1C213.7,98.6,212.5,97.9,210.4,97.9C210,97.8,211.4,97.9,210.4,97.9z"/>
	<circle cx="141.7" cy="113.7" r="3.9"/>
	<circle cx="155.3" cy="115.7" r="3.9"/>
</g>
</svg>
