<?xml version="1.0" encoding="utf-8"?>
<!-- Generator: Adobe Illustrator 19.2.1, SVG Export Plug-In . SVG Version: 6.00 Build 0)  -->
<svg version="1.1" id="arrow-up" class="" xmlns="http://www.w3.org/2000/svg" xmlns:xlink="http://www.w3.org/1999/xlink" x="0px" y="0px"
	 viewBox="0 0 141.7 141.7" enable-background="new 0 0 141.7 141.7" xml:space="preserve">
<path fill="#CECECE" d="M70.9,141.7C31.7,141.7,0,110,0,70.9C0,31.7,31.7,0,70.9,0s70.9,31.7,70.9,70.9
	C141.7,110,110,141.7,70.9,141.7z M66.1,38.6L31.1,73.6c-2.5,2.5-2.5,6.5,0,9l9,9c2.5,2.5,6.5,2.5,9,0l21.8-21.8l21.8,21.8
	c2.5,2.5,6.5,2.5,9,0l9-9c2.5-2.5,2.5-6.5,0-9L75.7,38.6c-1.3-1.3-3.1-1.9-4.8-1.8C69.1,36.7,67.4,37.3,66.1,38.6z M57.7,47.6
	c-1.2,1.2-1.9,2.9-1.9,4.5C55.9,50.4,56.5,48.8,57.7,47.6z M84,47.6l-9-9L84,47.6z"/>
</svg>
