<?xml version="1.0" encoding="utf-8"?>
<!-- Generator: Adobe Illustrator 19.2.1, SVG Export Plug-In . SVG Version: 6.00 Build 0)  -->
<svg version="1.1" xmlns="http://www.w3.org/2000/svg" xmlns:xlink="http://www.w3.org/1999/xlink" x="0px" y="0px"
	 viewBox="0 0 256 256" style="enable-background:new 0 0 256 256;" xml:space="preserve" id="" class="">
<path d="M157.4,0c-53.9,0-97.6,43.7-97.6,97.6c0,21.4,6.9,41.2,18.6,57.3L4.7,228.7c-6.2,6.2-6.2,16.4,0,22.6h0
	c6.2,6.2,16.4,6.2,22.6,0l74-74c15.9,11.2,35.3,17.8,56.2,17.8c53.9,0,97.6-43.7,97.6-97.6C255,43.7,211.3,0,157.4,0z M157.4,167.6
	c-38.7,0-70-31.3-70-70c0-38.7,31.3-70,70-70c38.7,0,70,31.3,70,70C227.4,136.2,196.1,167.6,157.4,167.6z"/>
</svg>
