<?xml version="1.0" encoding="utf-8"?>
<!-- Generator: Adobe Illustrator 19.2.1, SVG Export Plug-In . SVG Version: 6.00 Build 0)  -->
<svg version="1.1" xmlns="http://www.w3.org/2000/svg" xmlns:xlink="http://www.w3.org/1999/xlink" x="0px" y="0px"
	 viewBox="0 0 256 256" style="enable-background:new 0 0 256 256;" xml:space="preserve" id="" class="">
<path d="M145.5,51.2c-32.3,0-58.5,26.2-58.5,58.5c0,12.9,4.1,24.7,11.2,34.4l-44.3,44.3c-3.7,3.7-3.7,9.8,0,13.6h0
	c3.7,3.7,9.8,3.7,13.6,0l44.4-44.4c9.5,6.7,21.2,10.7,33.7,10.7c32.3,0,58.5-26.2,58.5-58.5S177.8,51.2,145.5,51.2z M145.5,151.7
	c-23.2,0-42-18.8-42-42c0-23.2,18.8-42,42-42c23.2,0,42,18.8,42,42C187.5,132.9,168.6,151.7,145.5,151.7z"/>
</svg>
